<svg width="66" height="70" xmlns="http://www.w3.org/2000/svg">
 <g>
  <title>background</title>
  <rect x="-1" y="-1" width="68" height="72" id="canvas_background" fill="none"/>
 </g>

 <g>
  <title>Layer 1</title>
  <path fill="#212121" d="m65.316,51.339l-18.47,-18.605l2.05,-10.097a4.655,4.655 0 0 0 1.66,0.319l0.014,0a4.723,4.723 0 1 0 -4.394,-3.14l-10.85,1.325l-17.698,-17.791a1.166,1.166 0 0 0 -0.824,-0.35c-0.306,0.002 -0.6,0.124 -0.817,0.34l-3.307,3.29a1.167,1.167 0 0 0 0,1.65l1.78,1.805a32.686,32.686 0 0 0 5.511,38.638c0.094,0.09 0.202,0.161 0.32,0.213a6.77,6.77 0 0 0 -0.114,1.197l0,13.534l-14,0a5.84,5.84 0 0 0 -5.835,5.833l0,2.333c0,0.645 0.523,1.167 1.168,1.167l53.667,0c0.644,0 1.166,-0.522 1.166,-1.167l0,-2.333a5.84,5.84 0 0 0 -5.833,-5.833l-14,0l0,-5.998c2.193,0.46 4.428,0.694 6.669,0.7a32.483,32.483 0 0 0 15.4,-3.901l1.79,1.8c0.216,0.221 0.513,0.347 0.823,0.35c0.306,-0.002 0.6,-0.124 0.817,-0.34l3.308,-3.29a1.167,1.167 0 0 0 0,-1.65l-0.001,0.001zm-16.391,-34.704a2.333,2.333 0 1 1 1.645,3.987l-0.008,0a2.333,2.333 0 0 1 -1.633,-3.987l-0.004,0zm-2.747,7.665l-1.309,6.444l-2.571,-2.587l3.88,-3.857zm-1.325,-1.973l-4.2,4.176l-3.25,-3.267l7.45,-0.909zm5.656,43.673a3.5,3.5 0 0 1 3.5,3.5l0,1.167l-51.333,0l0,-1.167a3.5,3.5 0 0 1 3.5,-3.5l44.333,0zm-16.333,-4.667l0,2.334l-11.667,0l0,-2.334l11.667,0zm-11.667,-2.333l0,-8.867c0,-2.83 2.617,-5.133 5.833,-5.133c3.217,0 5.834,2.303 5.834,5.133l0,8.867l-11.667,0zm14,-3.71l0,-5.157c0,-4.117 -3.663,-7.466 -8.167,-7.466a8.312,8.312 0 0 0 -7.177,3.907a30.34,30.34 0 0 1 -4.985,-34.754l40.692,40.925a30.233,30.233 0 0 1 -20.363,2.544l0,0.001zm24.695,-1.496l-1.644,-1.653l-42.768,-43.025l-1.65,-1.655l1.65,-1.645l17.358,17.456c0.008,0 0.013,0.015 0.021,0.021l28.688,28.856l-1.655,1.645z" id="svg_1"/>
 </g>
</svg>